# xmcd CD database file
#
# Track frame offsets:
#	150
#	20040
#	32540
#	46215
#	58522
#	76622
#	93382
#	111597
#	125510
#	141860
#	165650
#
# Disc length: 2464 seconds
#
# Revision: 0
# Processed by: cddbd v1.5.1PL0 Copyright (c) Steve Scherf et al.
# Submitted via: CDex 1.51
#
DISCID=8b099e0b
DTITLE=THE MODS - RISING SUN
DYEAR=2002
DGENRE=Rock
TTITLE0=Don’t Cross My Path
TTITLE1=9 Days Wonder
TTITLE2=SPICY SPUNKY PUNK(British Bulldog Mix)
TTITLE3=AIN’T NO SAINT
TTITLE4=CRAZY COM WORLD
TTITLE5=VAINHILL and BIG’N
TTITLE6=HOWLING DRIVE
TTITLE7=Let’s Rock
TTITLE8=GAULOISES SLICK
TTITLE9=WALTZ
TTITLE10=Do Ya Live
EXTD=YEAR: 2002
EXTT0=
EXTT1=
EXTT2=
EXTT3=
EXTT4=
EXTT5=
EXTT6=
EXTT7=
EXTT8=
EXTT9=
EXTT10=
PLAYORDER=
